<?xml version="1.0" encoding="UTF-8"?><svg id="Calque_1" xmlns="http://www.w3.org/2000/svg" xmlns:xlink="http://www.w3.org/1999/xlink" viewBox="0 0 1400 900"><defs><style>.cls-1{fill:none;}.cls-2{fill:#191919;}.cls-3{fill:url(#Unnamed_Pattern_16);}</style><pattern id="Unnamed_Pattern_16" x="0" y="0" width="58.96" height="58.96" patternTransform="translate(-5685.16 1930.5) scale(.73 .83)" patternUnits="userSpaceOnUse" viewBox="0 0 58.96 58.96"><rect class="cls-1" width="58.96" height="58.96"/><rect class="cls-2" width="58.96" height="58.96"/></pattern></defs><path class="cls-3" d="M271.79,526.02h352.62c41.7,0,75.5-33.8,75.5-75.5h0c0-41.7-33.8-75.5-75.5-75.5h-352.62c-41.7,0-75.5,33.8-75.5,75.5h0c0,41.7,33.8,75.5,75.5,75.5ZM246.34,478.99v-56.93s403.53,0,403.53,0v56.93H246.34Z"/><path class="cls-3" d="M728.75,375.08h6.49v60.29h36.85v6.17h-43.34v-66.46Z"/><path class="cls-3" d="M813.02,423.79h-30.17l-5.73,17.76h-7.06l22.05-66.46h11.84l21.86,66.46h-7.06l-5.73-17.76ZM811.21,418l-13.27-41.21-13.27,41.21h26.54Z"/><path class="cls-3" d="M866.83,375.08h29.58c12.41,0,19.92,6.46,19.92,17.76,0,12.34-8.76,18.14-20.69,18.14h-22.37v30.57h-6.45v-66.46ZM896.03,404.99c8.28,0,13.66-3.13,13.66-12.15,0-8.55-5.39-11.96-13.66-11.96h-22.75v24.12h22.75Z"/><path class="cls-3" d="M926.57,375.08h6.54v66.46h-6.54v-66.46Z"/><path class="cls-3" d="M1131.81,459.52h6.49v66.46h-6.49v-66.46Z"/><path class="cls-3" d="M947.84,421.61h6.54c.29,8.93,5.58,14.91,17.42,14.91,10.78,0,17.03-4.46,17.03-12.82,0-6.74-4.23-10.44-11.93-12.25l-10.59-2.47c-9.53-2.18-16.17-7.22-16.17-17.19,0-10.73,8.56-17.57,21.75-17.57s22.33,8.07,22.42,19.18h-6.54c-.19-7.69-5.87-13.2-15.97-13.2-8.66,0-15.11,3.8-15.11,11.58,0,6.36,4.62,9.4,11.45,11.01l10.1,2.47c11.07,2.75,17.22,8.26,17.22,18.42,0,11.58-9.05,18.7-23.67,18.7-16.36,0-23.67-8.45-23.96-20.79Z"/><path class="cls-3" d="M1097.79,375.08h12.41l30.79,65.04v-65.04h6.45v66.46h-12.89l-30.31-64.75v64.75h-6.45v-66.46Z"/><path class="cls-3" d="M1163.49,375.08h40.22v5.98h-33.68v23.17h30.7v5.98h-30.7v25.35h33.68v5.98h-40.22v-66.46Z"/><path class="cls-3" d="M785.91,459.52h39.9v5.98h-33.41v23.17h30.45v5.98h-30.45v25.35h33.41v5.98h-39.9v-66.46Z"/><path class="cls-3" d="M988.68,461.23v64.75h-6.4v-66.46h12.22l20.52,64.75,20.52-64.75h12.22v66.46h-6.4v-64.75l-20.14,64.75h-12.41l-20.14-64.75Z"/><path class="cls-3" d="M1105.66,508.23h-30.17l-5.73,17.76h-7.06l22.05-66.46h11.84l21.86,66.46h-7.06l-5.73-17.76ZM1103.85,502.44l-13.27-41.21-13.27,41.21h26.54Z"/><path class="cls-3" d="M1154.45,459.52h12.31l30.55,65.04v-65.04h6.4v66.46h-12.79l-30.07-64.75v64.75h-6.4v-66.46Z"/><path class="cls-3" d="M1074.56,375.08h6.54v66.46h-6.54v-66.46Z"/><path class="cls-3" d="M1056.85,432.08c-4.29,2.63-9.33,4.15-14.74,4.15-15.45,0-28.02-12.4-28.02-27.65s12.57-27.65,28.02-27.65c5.4,0,10.45,1.52,14.74,4.15v-7.3c-4.47-2.09-9.47-3.27-14.74-3.27-19.04,0-34.54,15.29-34.54,34.08s15.49,34.08,34.54,34.08c5.27,0,10.27-1.17,14.74-3.27v-7.3Z"/><path class="cls-3" d="M745.19,525.99h-16.68v-66.46h16.68c18.47,0,33.49,14.91,33.49,33.23s-15.02,33.23-33.49,33.23ZM734.97,519.58h10.22c14.9,0,27.03-12.03,27.03-26.82s-12.13-26.82-27.03-26.82h-10.22v53.64Z"/><path class="cls-3" d="M926.11,459.52h39.9v5.98h-33.41v23.17h30.45v5.98h-30.45v25.35h33.41v5.98h-39.9v-66.46Z"/><path class="cls-3" d="M882.67,525.99h-15.99v-66.46h15.99c18.47,0,33.49,14.91,33.49,33.23s-15.02,33.23-33.49,33.23ZM873.14,519.58h9.53c14.9,0,27.03-12.03,27.03-26.82s-12.13-26.82-27.03-26.82h-9.53v53.64Z"/></svg>