<?xml version="1.0" encoding="UTF-8"?>
<svg id="Calque_2" data-name="Calque 2" xmlns="http://www.w3.org/2000/svg" xmlns:xlink="http://www.w3.org/1999/xlink" viewBox="0 0 324.93 70.81">
  <defs>
    <style>
      .cls-1 {
        fill: none;
      }

      .cls-2 {
        fill: #191919;
      }

      .cls-3 {
        fill: url(#Unnamed_Pattern_16);
      }
    </style>
    <pattern id="Unnamed_Pattern_16" data-name="Unnamed Pattern 16" x="0" y="0" width="58.96" height="58.96" patternTransform="translate(-7956.51 -6691.8) scale(.11 .14)" patternUnits="userSpaceOnUse" viewBox="0 0 58.96 58.96">
      <g>
        <rect class="cls-1" width="58.96" height="58.96"/>
        <rect class="cls-1" width="58.96" height="58.96"/>
        <rect class="cls-2" width="58.96" height="58.96"/>
      </g>
    </pattern>
  </defs>
  <g id="Calque_1-2" data-name="Calque 1">
    <g>
      <g>
        <path d="M0,24.98h5.86V4.96H0V.73h16.36v4.23h-5.9v20.02h5.9v4.23H0v-4.23Z"/>
        <path d="M22.47.73h8.71l9.16,27.67V.73h4.43v28.48h-8.91L26.9,1.75v27.46h-4.44V.73Z"/>
        <path d="M57.8,4.96h-8.34V.73h21.24v4.23h-8.34v24.25h-4.56V4.96Z"/>
        <path d="M75.39.73h18.31v4.19h-13.71v7.53h12.45v4.15h-12.45v8.38h13.71v4.23h-18.31V.73Z"/>
        <path d="M99.41.73h11.48c5.29,0,8.62,3.17,8.62,8.02,0,5.17-3.05,8.14-8.62,8.14h-5.9l16.03,12.33h-7.45l-9.64-7.69v7.69h-4.52V.73ZM110.27,12.7c2.85,0,4.56-.98,4.56-3.91s-1.71-3.91-4.56-3.91h-6.34v7.81h6.34Z"/>
        <path d="M125.91.73h8.71l9.16,27.67V.73h4.43v28.48h-8.91l-8.95-27.46v27.46h-4.44V.73Z"/>
        <path d="M171.05,22.26h-11.64l-1.95,6.96h-4.76L160.96.73h8.62l8.18,28.48h-4.76l-1.95-6.96ZM169.83,17.98l-4.6-16.24-4.6,16.24h9.2Z"/>
        <path d="M185.1,4.96h-8.34V.73h21.24v4.23h-8.34v24.25h-4.56V4.96Z"/>
        <path d="M201.47,24.98h5.86V4.96h-5.86V.73h16.36v4.23h-5.9v20.02h5.9v4.23h-16.36v-4.23Z"/>
        <path d="M222.31,17.05v-4.88c0-7.77,4.48-12.17,11.64-12.17s11.64,4.39,11.64,12.17v4.88c0,7.77-4.48,12.17-11.64,12.17s-11.64-4.39-11.64-12.17ZM233.95,24.94c4.8,0,7.08-2.93,7.08-7.89v-4.88c0-5-2.28-7.81-7.08-7.81s-7.04,2.81-7.04,7.81v4.88c0,4.96,2.28,7.89,7.04,7.89Z"/>
        <path d="M251.29.73h8.71l9.16,27.67V.73h4.43v28.48h-8.91l-8.95-27.46v27.46h-4.44V.73Z"/>
        <path d="M296.43,22.26h-11.64l-1.95,6.96h-4.76l8.26-28.48h8.62l8.18,28.48h-4.76l-1.95-6.96ZM295.21,17.98l-4.6-16.24-4.6,16.24h9.2Z"/>
        <path d="M307.64.73h4.6v24.25h12.7v4.23h-17.29V.73Z"/>
      </g>
      <g>
        <path class="cls-3" d="M14.99,70.81h70.03c8.28,0,14.99-6.71,14.99-14.99h0c0-8.28-6.71-14.99-14.99-14.99H14.99c-8.28,0-14.99,6.71-14.99,14.99h0c0,8.28,6.71,14.99,14.99,14.99h0ZM9.94,61.47v-11.31h80.14v11.31H9.94Z"/>
        <g>
          <path d="M108.47,58.32v-5.01c0-7.98,4.66-12.49,12.11-12.49s11.69,4.09,12.02,10.86h-4.78c-.3-3.88-2.46-6.39-7.24-6.39-5.08,0-7.32,2.97-7.32,8.02v5.01c0,5.05,2.24,8.1,7.32,8.1,4.66,0,6.9-2.42,7.2-6.14h4.78c-.42,6.56-4.87,10.53-11.98,10.53s-12.11-4.51-12.11-12.49Z"/>
          <path d="M136.85,58.32v-5.01c0-7.98,4.66-12.49,12.11-12.49s12.11,4.51,12.11,12.49v5.01c0,7.98-4.66,12.49-12.11,12.49s-12.11-4.51-12.11-12.49ZM148.95,66.42c4.99,0,7.36-3.01,7.36-8.1v-5.01c0-5.14-2.37-8.02-7.36-8.02s-7.32,2.88-7.32,8.02v5.01c0,5.1,2.37,8.1,7.32,8.1Z"/>
          <path d="M167,41.2h9.06l9.52,28.4v-28.4h4.61v29.24h-9.27l-9.31-28.19v28.19h-4.62v-29.24Z"/>
          <path d="M196.14,58.32v-5.01c0-7.98,4.66-12.49,12.11-12.49s11.64,4.01,12.02,10.57h-4.78c-.34-3.72-2.59-6.1-7.24-6.1-5.08,0-7.32,2.97-7.32,8.02v5.01c0,5.05,2.24,7.98,7.32,7.98,4.7,0,7.32-2,7.32-7.23v-.25h-7.37v-4.3h12.11v4.43c0,7.1-4.28,11.86-12.07,11.86s-12.11-4.51-12.11-12.49Z"/>
          <path d="M226.26,41.2h11.94c5.5,0,8.97,3.26,8.97,8.23,0,5.3-3.17,8.35-8.97,8.35h-6.14l16.68,12.66h-7.75l-10.03-7.89v7.89h-4.7v-29.24ZM237.56,53.48c2.96,0,4.74-1,4.74-4.01s-1.78-4.01-4.74-4.01h-6.6v8.02h6.6Z"/>
          <path d="M253.83,41.2h19.05v4.3h-14.27v7.73h12.95v4.26h-12.95v8.6h14.27v4.34h-19.05v-29.24Z"/>
          <path d="M276.7,61.12h4.74c.17,3.22,2.33,5.39,6.48,5.39s6.31-1.67,6.31-4.22c0-2.34-1.44-3.47-4.15-4.09l-4.57-1.08c-4.62-1.13-7.53-3.43-7.53-7.98,0-4.84,3.85-8.31,10.2-8.31s10.5,3.89,10.59,9.06h-4.74c-.13-2.63-2.03-4.76-5.88-4.76-3.55,0-5.42,1.63-5.42,3.88,0,2.13,1.4,3.05,4.11,3.72l4.57,1.13c5.08,1.29,7.62,3.97,7.62,8.44,0,5.22-4.65,8.52-11.09,8.52-7.2,0-11.05-3.97-11.22-9.69Z"/>
          <path d="M302.62,61.12h4.74c.17,3.22,2.33,5.39,6.48,5.39s6.31-1.67,6.31-4.22c0-2.34-1.44-3.47-4.15-4.09l-4.57-1.08c-4.62-1.13-7.53-3.43-7.53-7.98,0-4.84,3.85-8.31,10.2-8.31s10.5,3.89,10.59,9.06h-4.74c-.13-2.63-2.03-4.76-5.88-4.76-3.55,0-5.42,1.63-5.42,3.88,0,2.13,1.4,3.05,4.11,3.72l4.57,1.13c5.08,1.29,7.62,3.97,7.62,8.44,0,5.22-4.65,8.52-11.09,8.52-7.2,0-11.05-3.97-11.22-9.69Z"/>
        </g>
      </g>
    </g>
  </g>
</svg>