<?xml version="1.0" encoding="UTF-8"?>
<svg id="Calque_2" data-name="Calque 2" xmlns="http://www.w3.org/2000/svg" xmlns:xlink="http://www.w3.org/1999/xlink" viewBox="0 0 321.49 77.61">
  <defs>
    <style>
      .cls-1 {
        fill: none;
      }

      .cls-2 {
        fill: #191919;
      }

      .cls-3 {
        fill: url(#Unnamed_Pattern_16);
      }
    </style>
    <pattern id="Unnamed_Pattern_16" data-name="Unnamed Pattern 16" x="0" y="0" width="58.96" height="58.96" patternTransform="translate(-8387.84 -6289.48) scale(.13 .17)" patternUnits="userSpaceOnUse" viewBox="0 0 58.96 58.96">
      <g>
        <rect class="cls-1" width="58.96" height="58.96"/>
        <rect class="cls-1" width="58.96" height="58.96"/>
        <rect class="cls-2" width="58.96" height="58.96"/>
      </g>
    </pattern>
  </defs>
  <g id="Calque_1-2" data-name="Calque 1">
    <g>
      <g>
        <g>
          <path d="M140.29,25.49v-4.83c0-7.69,4.43-12.04,11.52-12.04s11.12,3.95,11.44,10.47h-4.55c-.28-3.74-2.34-6.16-6.89-6.16-4.83,0-6.97,2.86-6.97,7.73v4.83c0,4.87,2.13,7.81,6.97,7.81,4.43,0,6.56-2.34,6.85-5.92h4.55c-.4,6.32-4.63,10.15-11.4,10.15s-11.52-4.35-11.52-12.04Z"/>
          <path d="M167.27,25.49v-4.83c0-7.69,4.43-12.04,11.52-12.04s11.52,4.35,11.52,12.04v4.83c0,7.69-4.43,12.04-11.52,12.04s-11.52-4.35-11.52-12.04ZM178.79,33.3c4.75,0,7.01-2.9,7.01-7.81v-4.83c0-4.95-2.26-7.73-7.01-7.73s-6.97,2.78-6.97,7.73v4.83c0,4.91,2.26,7.81,6.97,7.81Z"/>
          <path d="M195.95,8.98h8.62l9.06,27.38V8.98h4.39v28.19h-8.82l-8.86-27.18v27.18h-4.39V8.98Z"/>
          <path d="M223.66,25.49v-4.83c0-7.69,4.43-12.04,11.52-12.04s11.07,3.87,11.44,10.19h-4.55c-.32-3.58-2.46-5.88-6.89-5.88-4.83,0-6.97,2.86-6.97,7.73v4.83c0,4.87,2.13,7.69,6.97,7.69,4.47,0,6.97-1.93,6.97-6.97v-.24h-7.01v-4.15h11.52v4.27c0,6.85-4.07,11.44-11.48,11.44s-11.52-4.35-11.52-12.04Z"/>
          <path d="M252.3,8.98h11.36c5.24,0,8.54,3.14,8.54,7.93,0,5.11-3.02,8.05-8.54,8.05h-5.84l15.87,12.2h-7.37l-9.54-7.61v7.61h-4.47V8.98ZM263.05,20.82c2.82,0,4.51-.97,4.51-3.87s-1.69-3.87-4.51-3.87h-6.28v7.73h6.28Z"/>
          <path d="M278.52,8.98h18.12v4.15h-13.57v7.45h12.32v4.11h-12.32v8.3h13.57v4.19h-18.12V8.98ZM288.3,0l2.09,6.08h-3.62l-2.66-6.08h4.19Z"/>
          <path d="M300.27,28.19h4.51c.16,3.1,2.21,5.2,6.16,5.2s6-1.61,6-4.07c0-2.26-1.37-3.34-3.95-3.95l-4.35-1.05c-4.39-1.09-7.17-3.3-7.17-7.69,0-4.67,3.66-8.01,9.71-8.01s9.99,3.74,10.07,8.74h-4.51c-.12-2.54-1.93-4.59-5.6-4.59-3.38,0-5.16,1.57-5.16,3.74,0,2.05,1.33,2.94,3.91,3.58l4.35,1.09c4.83,1.25,7.25,3.83,7.25,8.13,0,5.03-4.43,8.22-10.55,8.22-6.85,0-10.51-3.83-10.67-9.34Z"/>
        </g>
        <g>
          <path d="M0,73.06h5.8v-19.81H0v-4.19h16.19v4.19h-5.84v19.81h5.84v4.19H0v-4.19Z"/>
          <path d="M22.23,49.06h8.62l9.06,27.38v-27.38h4.39v28.19h-8.82l-8.86-27.18v27.18h-4.39v-28.19Z"/>
          <path d="M57.19,53.25h-8.26v-4.19h21.02v4.19h-8.26v24h-4.51v-24Z"/>
          <path d="M74.59,49.06h18.12v4.15h-13.57v7.45h12.32v4.11h-12.32v8.3h13.57v4.19h-18.12v-28.19Z"/>
          <path d="M98.36,49.06h11.36c5.24,0,8.54,3.14,8.54,7.93,0,5.11-3.02,8.05-8.54,8.05h-5.84l15.87,12.2h-7.37l-9.55-7.61v7.61h-4.47v-28.19ZM109.11,60.9c2.82,0,4.51-.97,4.51-3.87s-1.69-3.87-4.51-3.87h-6.28v7.73h6.28Z"/>
          <path d="M124.58,49.06h8.62l9.06,27.38v-27.38h4.39v28.19h-8.82l-8.86-27.18v27.18h-4.39v-28.19Z"/>
          <path d="M169.24,70.36h-11.52l-1.93,6.89h-4.71l8.17-28.19h8.54l8.09,28.19h-4.71l-1.93-6.89ZM168.03,66.13l-4.55-16.07-4.55,16.07h9.1Z"/>
          <path d="M183.14,53.25h-8.26v-4.19h21.02v4.19h-8.26v24h-4.51v-24Z"/>
          <path d="M199.33,73.06h5.8v-19.81h-5.8v-4.19h16.19v4.19h-5.84v19.81h5.84v4.19h-16.19v-4.19Z"/>
          <path d="M219.95,65.57v-4.83c0-7.69,4.43-12.04,11.52-12.04s11.52,4.35,11.52,12.04v4.83c0,7.69-4.43,12.04-11.52,12.04s-11.52-4.35-11.52-12.04ZM231.47,73.38c4.75,0,7.01-2.9,7.01-7.81v-4.83c0-4.95-2.25-7.73-7.01-7.73s-6.97,2.78-6.97,7.73v4.83c0,4.91,2.25,7.81,6.97,7.81Z"/>
          <path d="M248.63,49.06h8.62l9.06,27.38v-27.38h4.39v28.19h-8.82l-8.86-27.18v27.18h-4.39v-28.19Z"/>
          <path d="M293.3,70.36h-11.52l-1.93,6.89h-4.71l8.17-28.19h8.54l8.09,28.19h-4.71l-1.93-6.89ZM292.09,66.13l-4.55-16.07-4.55,16.07h9.1Z"/>
          <path d="M304.37,49.06h4.55v24h12.57v4.19h-17.12v-28.19Z"/>
        </g>
      </g>
      <path class="cls-3" d="M20.45,42.33h88.9c10.51,0,19.04-8.52,19.04-19.04h0c0-10.51-8.52-19.04-19.04-19.04H20.45C9.94,4.26,1.42,12.78,1.42,23.3h0c0,10.51,8.52,19.04,19.04,19.04h0ZM14.04,30.47v-14.35h101.74v14.35H14.04Z"/>
    </g>
  </g>
</svg>